<svg xmlns="http://www.w3.org/2000/svg" viewBox="0 0 1800 1100" role="img" aria-label="Gold jewelry collection">
  <defs>
    <linearGradient id="bg" x1="0" x2="1" y1="0" y2="1">
      <stop offset="0" stop-color="#f6efe4"/>
      <stop offset="1" stop-color="#c6d3ce"/>
    </linearGradient>
    <filter id="shadow" x="-20%" y="-20%" width="140%" height="140%">
      <feDropShadow dx="0" dy="24" stdDeviation="20" flood-color="#372a1d" flood-opacity=".22"/>
    </filter>
  </defs>
  <rect width="1800" height="1100" fill="url(#bg)"/>
  <rect x="0" y="0" width="780" height="1100" fill="#fbf7f0" opacity=".62"/>
  <rect x="905" y="130" width="775" height="795" rx="44" fill="#fffaf2" opacity=".45" stroke="#fff" stroke-opacity=".7"/>
  <g filter="url(#shadow)">
    <g transform="translate(1125 495)">
      <circle r="112" fill="none" stroke="#d7a640" stroke-width="30"/>
      <circle r="66" fill="#f4ead8"/>
      <polygon points="0,-178 48,-130 0,-82 -48,-130" fill="#a6274d" stroke="#fff0c9" stroke-width="7"/>
    </g>
    <g transform="translate(1310 495)">
      <circle r="112" fill="none" stroke="#dfb451" stroke-width="30"/>
      <circle r="66" fill="#f4ead8"/>
      <polygon points="0,-178 48,-130 0,-82 -48,-130" fill="#1d7883" stroke="#fff0c9" stroke-width="7"/>
    </g>
    <g transform="translate(1495 495)">
      <circle r="112" fill="none" stroke="#d7a640" stroke-width="30"/>
      <circle r="66" fill="#f4ead8"/>
      <polygon points="0,-178 48,-130 0,-82 -48,-130" fill="#6b4a9b" stroke="#fff0c9" stroke-width="7"/>
    </g>
    <path d="M1040 235c92 330 440 330 530 0" fill="none" stroke="#c79535" stroke-width="14" stroke-linecap="round"/>
    <polygon points="1305,645 1350,700 1305,755 1260,700" fill="#1d7883" stroke="#fff0c9" stroke-width="8"/>
  </g>
</svg>
